<svg width="32" height="22" viewBox="0 0 32 22" fill="none" xmlns="http://www.w3.org/2000/svg">
<g clip-path="url(#clip0_411_3375)">
<path d="M6.25521 0H14.2275C15.3403 0 16.0325 0.997838 15.773 2.22612L12.0612 19.7553C11.7993 20.9793 10.685 21.978 9.57146 21.978H1.59984C0.488588 21.978 -0.205162 20.9793 0.0544631 19.7553L3.76771 2.22612C4.02734 0.997838 5.14096 0 6.25521 0Z" fill="#E21836"/>
<path d="M13.5632 0H22.7312C23.8438 0 23.3422 0.997838 23.0805 2.22612L19.3692 19.7553C19.109 20.9793 19.1901 21.978 18.0751 21.978H8.90721C7.79221 21.978 7.10221 20.9793 7.36408 19.7553L11.075 2.22612C11.3385 0.997838 12.4498 0 13.5632 0Z" fill="#00447C"/>
<path d="M22.3676 0H30.3398C31.4543 0 32.1465 0.997838 31.8848 2.22612L28.1736 19.7553C27.9117 20.9793 26.7967 21.978 25.6823 21.978H17.7138C16.5988 21.978 15.9072 20.9793 16.1684 19.7553L19.8801 2.22612C20.1397 0.997838 21.2526 0 22.3676 0Z" fill="#007B84"/>
<path d="M8.33834 5.6177C7.51859 5.62691 7.27647 5.6177 7.19909 5.59762C7.16934 5.753 6.61609 8.5602 6.61459 8.56254C6.49547 9.13041 6.40884 9.53535 6.11434 9.79674C5.94734 9.94867 5.75222 10.0221 5.52597 10.0221C5.16247 10.0221 4.95059 9.82341 4.91509 9.4468L4.90822 9.31755C4.90822 9.31755 5.01897 8.55676 5.01897 8.5525C5.01897 8.5525 5.59959 5.99431 5.70359 5.6562C5.70909 5.63695 5.71059 5.62691 5.71197 5.6177C4.58184 5.6287 4.38147 5.6177 4.36772 5.59762C4.36009 5.62512 4.33209 5.7838 4.33209 5.7838L3.73922 8.66717L3.68834 8.91165L3.58984 9.71149C3.58984 9.94867 3.63222 10.1424 3.71647 10.3062C3.98659 10.8254 4.75709 10.9032 5.19297 10.9032C5.75447 10.9032 6.28134 10.7719 6.63734 10.5322C7.25522 10.1307 7.41697 9.5029 7.56109 8.94492L7.62797 8.65879C7.62797 8.65879 8.22609 6.00187 8.32772 5.6562C8.33147 5.63695 8.33309 5.62691 8.33834 5.6177ZM10.3733 7.76105C10.2292 7.76105 9.96584 7.79955 9.72909 7.92715C9.64322 7.97569 9.56197 8.03165 9.47622 8.08747L9.55359 7.7803L9.51122 7.7286C9.00934 7.84039 8.89697 7.85537 8.43334 7.92715L8.39459 7.95561C8.34072 8.44649 8.29284 8.81567 8.09334 9.78079C8.0169 10.1378 7.9389 10.4944 7.85934 10.8505L7.88059 10.8955C8.35584 10.868 8.49997 10.868 8.91297 10.8754L8.94634 10.8355C8.99884 10.5399 9.00559 10.4706 9.12184 9.87181C9.17647 9.58801 9.29034 8.96431 9.34647 8.74225C9.44959 8.68959 9.55147 8.63789 9.64859 8.63789C9.88009 8.63789 9.85184 8.85995 9.84297 8.9485C9.83297 9.097 9.74872 9.58224 9.66222 9.99886L9.60447 10.2677C9.56434 10.4664 9.52022 10.6593 9.47997 10.8562L9.49747 10.8955C9.96572 10.868 10.1086 10.868 10.5085 10.8754L10.5555 10.8355C10.6278 10.3738 10.649 10.2502 10.7772 9.57797L10.8417 9.26915C10.9671 8.66456 11.0301 8.35807 10.9352 8.10837C10.835 7.82856 10.5943 7.76105 10.3735 7.76105H10.3733ZM12.6468 8.39396C12.3978 8.44662 12.2391 8.48155 12.0813 8.50424C11.925 8.53174 11.7723 8.5569 11.5318 8.59361L11.5127 8.61259L11.4952 8.62771C11.4702 8.82489 11.4527 8.99525 11.4195 9.19559C11.3913 9.40266 11.348 9.63806 11.2775 9.97617C11.2228 10.2349 11.1947 10.3251 11.1636 10.4162C11.1332 10.5073 11.0998 10.5959 11.0385 10.8504L11.0528 10.8739L11.0648 10.8955C11.2897 10.8838 11.4368 10.8754 11.588 10.8739C11.739 10.868 11.8955 10.8739 12.1375 10.8753L12.1587 10.8564L12.1815 10.8354C12.2165 10.6058 12.2216 10.544 12.243 10.4321C12.2642 10.3119 12.3007 10.1457 12.3903 9.70145C12.4327 9.49286 12.4798 9.28482 12.5238 9.07197C12.5695 8.85995 12.6172 8.65122 12.6627 8.4425L12.656 8.41734L12.6468 8.39396ZM12.6521 7.54064C12.4258 7.39379 12.029 7.4404 11.7617 7.64321C11.4953 7.84204 11.465 8.12419 11.6905 8.27296C11.9127 8.41569 12.3112 8.3732 12.5761 8.1686C12.842 7.96551 12.8752 7.68597 12.6521 7.54064ZM14.02 10.9416C14.4776 10.9416 14.9467 10.8027 15.2998 10.3911C15.5715 10.0573 15.6961 9.56051 15.7392 9.35591C15.8796 8.6779 15.7702 8.36137 15.633 8.1686C15.4242 7.87462 15.0553 7.7803 14.6727 7.7803C14.4427 7.7803 13.8947 7.80532 13.4666 8.23955C13.1591 8.55264 13.0171 8.97765 12.9315 9.38492C12.845 9.80017 12.7455 10.5473 13.3702 10.8255C13.563 10.9165 13.8408 10.9416 14.02 10.9416ZM13.9842 9.416C14.0897 8.90257 14.2143 8.47165 14.5322 8.47165C14.7813 8.47165 14.7995 8.7923 14.6887 9.30737C14.6688 9.42177 14.578 9.84692 14.455 10.0279C14.369 10.1615 14.2675 10.2425 14.155 10.2425C14.1216 10.2425 13.9228 10.2425 13.9197 9.91787C13.9182 9.75755 13.948 9.59379 13.9842 9.416ZM16.8831 10.8756L16.9188 10.8355C16.9696 10.5399 16.978 10.4705 17.0902 9.87195C17.1465 9.58801 17.2627 8.96445 17.3172 8.74225C17.4206 8.68945 17.5207 8.63775 17.621 8.63775C17.8508 8.63775 17.8228 8.85981 17.8137 8.94836C17.8053 9.09714 17.721 9.5821 17.633 9.99872L17.5783 10.2675C17.5366 10.4664 17.4911 10.6591 17.4508 10.8563L17.4683 10.8956C17.9383 10.8681 18.0756 10.8681 18.4778 10.8756L18.5265 10.8355C18.597 10.3735 18.6161 10.2501 18.7482 9.57797L18.8111 9.26901C18.9371 8.66442 19.0008 8.35821 18.9075 8.10851C18.8043 7.8287 18.5622 7.76119 18.3443 7.76119C18.2 7.76119 17.9352 7.79941 17.6998 7.92729C17.6157 7.97569 17.5313 8.03151 17.4486 8.08761L17.5207 7.78044L17.482 7.72846C16.9802 7.84039 16.8657 7.85537 16.4026 7.92729L16.367 7.95561C16.3108 8.44662 16.2652 8.81554 16.0657 9.78092C15.9892 10.1378 15.9113 10.4944 15.8318 10.8505L15.8531 10.8956C16.329 10.8681 16.471 10.8681 16.8831 10.8756ZM20.3353 10.8955C20.3648 10.7368 20.5403 9.79687 20.5418 9.79687C20.5418 9.79687 20.6912 9.10704 20.7005 9.08201C20.7005 9.08201 20.7475 9.01024 20.7945 8.98177H20.8636C21.5163 8.98177 22.2535 8.98177 22.8311 8.51427C23.2242 8.19362 23.493 7.72021 23.6128 7.14477C23.644 7.0037 23.6668 6.83595 23.6668 6.6682C23.6668 6.44779 23.6267 6.22971 23.5105 6.05935C23.2158 5.60601 22.6292 5.59762 21.952 5.59419L21.6182 5.59762C20.7513 5.60945 20.4037 5.60601 20.2608 5.58676C20.2488 5.6562 20.2261 5.77981 20.2261 5.77981C20.2261 5.77981 19.9156 7.36285 19.9156 7.36532L19.1375 10.8897C19.8943 10.8797 20.2047 10.8797 20.3353 10.8955ZM20.9107 8.08335C20.9107 8.08335 21.2407 6.50347 21.2392 6.50952L21.25 6.4284L21.2546 6.3668L21.3866 6.38165C21.3866 6.38165 22.0675 6.446 22.0833 6.44765C22.3521 6.56205 22.4628 6.85685 22.3856 7.24157C22.315 7.5933 22.1077 7.88892 21.8412 8.03165C21.6218 8.15265 21.3531 8.16269 21.0762 8.16269H20.8971L20.9107 8.08335ZM22.9662 9.44529C22.879 9.85435 22.7787 10.6017 23.4003 10.868C23.5986 10.9607 23.7762 10.9883 23.9566 10.9783C24.1473 10.967 24.324 10.8618 24.4876 10.7104L24.4432 10.8973L24.4715 10.9372C24.9186 10.9165 25.0573 10.9165 25.5417 10.9207L25.5857 10.8838C25.6563 10.4263 25.7231 9.98222 25.907 9.10704C25.9965 8.68794 26.0858 8.27282 26.1777 7.85537L26.1633 7.80945C25.6632 7.91134 25.5296 7.9332 25.0483 8.00814L25.0118 8.04086C25.007 8.08349 25.0018 8.12432 24.9972 8.16516C24.9225 8.0322 24.814 7.91862 24.6467 7.84795C24.4327 7.75527 23.9302 7.87462 23.4983 8.3072C23.1947 8.61616 23.049 9.03939 22.9662 9.44529ZM24.0167 9.47031C24.1238 8.96596 24.2467 8.53944 24.5655 8.53944C24.767 8.53944 24.8731 8.7439 24.8515 9.09274C24.833 9.18705 24.8138 9.28119 24.794 9.37516C24.7621 9.52504 24.7276 9.67354 24.694 9.82231C24.6597 9.92406 24.6198 10.02 24.5762 10.084C24.4942 10.2118 24.2991 10.291 24.1867 10.291C24.1548 10.291 23.9582 10.291 23.9515 9.97205C23.9498 9.81337 23.9796 9.64975 24.0167 9.47017V9.47031ZM29.5025 7.80532L29.4637 7.75679C28.9688 7.86706 28.8792 7.88466 28.4246 7.95217L28.3911 7.98889C28.3896 7.99494 28.3882 8.00401 28.3858 8.0124L28.3843 8.00415C28.0458 8.86325 28.0557 8.6779 27.7802 9.35412C27.7786 9.32332 27.7786 9.30421 27.7771 9.27149L27.7081 7.80532L27.6648 7.75679C27.1463 7.86706 27.1341 7.88466 26.6553 7.95217L26.618 7.98889C26.6127 8.00649 26.6127 8.02574 26.6096 8.04664L26.6127 8.0542C26.6726 8.39052 26.6582 8.31545 26.7182 8.84647C26.7462 9.10704 26.7836 9.36911 26.8115 9.62651C26.8587 10.0572 26.8852 10.2692 26.9428 10.9266C26.6196 11.5134 26.543 11.7356 26.2316 12.2507L26.2338 12.2558L26.0146 12.6372C25.9896 12.6774 25.9668 12.7049 25.935 12.7167C25.9 12.7357 25.8545 12.7391 25.7913 12.7391H25.6698L25.4893 13.3997L26.1087 13.4113C26.4722 13.4097 26.7007 13.2227 26.8237 12.9713L27.2132 12.2372H27.207L27.248 12.1855C27.51 11.5653 29.5025 7.80532 29.5025 7.80532ZM22.9662 16.4799H22.7035L23.676 12.942H23.9985L24.101 12.5777L24.1107 12.9829C24.0987 13.2334 24.2778 13.4555 24.7485 13.4188H25.2928L25.4801 12.7376H25.2753C25.1576 12.7376 25.1028 12.7049 25.1097 12.6347L25.0998 12.2224H24.092V12.2246C23.7661 12.232 22.7928 12.2589 22.5958 12.3167C22.3575 12.3841 22.1062 12.583 22.1062 12.583L22.205 12.2181H21.2621L21.0656 12.942L20.0802 16.534H19.889L19.7015 17.2103H21.5793L21.5165 17.4358H22.4417L22.5032 17.2103H22.7627L22.9662 16.4799ZM22.1957 13.6609C22.0447 13.7068 21.7638 13.8462 21.7638 13.8462L22.0137 12.942H22.7627L22.5821 13.6008C22.5821 13.6008 22.3506 13.6159 22.1958 13.6609H22.1957ZM22.2101 14.9526C22.2101 14.9526 21.9748 14.9852 21.82 15.0235C21.6675 15.0744 21.3813 15.2347 21.3813 15.2347L21.6395 14.2938H22.3923L22.2101 14.9526ZM21.7903 16.4882H21.039L21.2568 15.6941H22.0058L21.7903 16.4882ZM23.6 14.2938H24.6831L24.5275 14.8483H23.43L23.2652 15.4545H24.2256L23.4983 16.5807C23.4475 16.6635 23.4018 16.6928 23.3511 16.716C23.3002 16.7445 23.2333 16.7779 23.1561 16.7779H22.8896L22.7066 17.4417H23.4033C23.7656 17.4417 23.9796 17.2605 24.1375 17.0226L24.6362 16.2719L24.7432 17.0342C24.766 17.1769 24.8592 17.2605 24.9223 17.293C24.9921 17.3315 25.0642 17.3975 25.1661 17.4074C25.2752 17.4125 25.3541 17.4166 25.4066 17.4166H25.7491L25.9546 16.6735H25.8196C25.7421 16.6735 25.6085 16.6592 25.5858 16.6325C25.563 16.6 25.563 16.5501 25.5508 16.4739L25.4421 15.7099H24.9973L25.1925 15.4545H26.2878L26.4563 14.8483H25.4422L25.6001 14.2938H26.6112L26.7987 13.61H23.7845L23.6 14.2938ZM14.4518 16.6426L14.7046 15.7175H15.7437L15.9335 15.0294H14.8935L15.0522 14.4601H16.0685L16.2568 13.7937H13.714L13.5296 14.4601H14.1073L13.9532 15.0293H13.374L13.182 15.7292H13.7595L13.4225 16.9532C13.3771 17.1152 13.4438 17.1769 13.4862 17.2523C13.5296 17.3256 13.5735 17.3741 13.6722 17.4016C13.7741 17.4266 13.8438 17.4416 13.9386 17.4416H15.11L15.3187 16.6793L14.7995 16.7578C14.6992 16.7578 14.4215 16.7446 14.4518 16.6426ZM14.571 12.214L14.3077 12.7375C14.2515 12.8517 14.2006 12.9228 14.155 12.9554C14.1147 12.9829 14.035 12.9946 13.9196 12.9946H13.7822L13.5986 13.6642H14.0548C14.2743 13.6642 14.4427 13.5758 14.5232 13.5315C14.6097 13.4806 14.6325 13.5096 14.6992 13.4387L14.8533 13.2918H16.2781L16.4672 12.5947H15.4242L15.6063 12.2139H14.571V12.214ZM16.6743 16.6561C16.6501 16.6176 16.6676 16.5498 16.7047 16.4087L17.0941 14.9909H18.4795C18.6813 14.9878 18.827 14.9852 18.922 14.9777C19.0237 14.9659 19.1345 14.9259 19.2551 14.8541C19.3797 14.7789 19.4435 14.6996 19.4972 14.6086C19.5572 14.5178 19.6537 14.3188 19.7365 14.0123L20.226 12.2181L18.7885 12.2273C18.7885 12.2273 18.3457 12.2991 18.1508 12.3786C17.9542 12.467 17.6732 12.7141 17.6732 12.7141L17.803 12.2222H16.915L15.6717 16.7578C15.6276 16.9338 15.598 17.0617 15.5912 17.1386C15.589 17.2212 15.6861 17.3031 15.7491 17.3649C15.8235 17.4266 15.9335 17.4166 16.039 17.4266C16.15 17.4358 16.3077 17.4416 16.5256 17.4416H17.2081L17.4175 16.6635L16.8066 16.727C16.7412 16.727 16.6941 16.6885 16.6743 16.6561ZM17.3453 14.0334H18.8003L18.7078 14.3523C18.695 14.3597 18.6638 14.3364 18.5157 14.3557H17.2557L17.3453 14.0334ZM17.6368 12.9636H19.1042L18.9986 13.3478C18.9986 13.3478 18.3071 13.3404 18.1963 13.3628C17.7088 13.4556 17.4242 13.742 17.4242 13.742L17.6368 12.9638V12.9636ZM18.7406 15.4202C18.7285 15.4679 18.7093 15.4969 18.6828 15.5188C18.6532 15.5397 18.6053 15.5471 18.5341 15.5471H18.3268L18.3391 15.1588H17.4766L17.4416 17.0576C17.4403 17.1945 17.4523 17.2739 17.5435 17.3374C17.6347 17.4166 17.9155 17.4267 18.2935 17.4267H18.8338L19.0288 16.7159L18.5585 16.7443L18.402 16.7544C18.3807 16.7443 18.3602 16.7351 18.3375 16.7102C18.3177 16.6887 18.2842 16.7019 18.2897 16.5649L18.2935 16.0781L18.7867 16.0557C19.0532 16.0557 19.1671 15.9603 19.2642 15.8696C19.3568 15.7825 19.3872 15.6826 19.4222 15.5471L19.505 15.1162H18.827L18.7405 15.4201L18.7406 15.4202Z" fill="#FEFEFE"/>
</g>
<defs>
<clipPath id="clip0_411_3375">
<rect width="32" height="22" fill="white"/>
</clipPath>
</defs>
</svg>
