<svg width="35" height="35" viewBox="0 0 35 35" fill="none" xmlns="http://www.w3.org/2000/svg">
<circle cx="17.5" cy="17.5" r="16.5" fill="#FEBB02" stroke="white" stroke-width="2"/>
<path d="M17.8542 6.00013C16.0363 6.00013 14.2929 6.72227 13.0075 8.00767C11.7221 9.29308 11 11.0365 11 12.8543C11 13.3737 11.2063 13.8718 11.5736 14.239C11.9408 14.6063 12.439 14.8126 12.9583 14.8126C13.4777 14.8126 13.9758 14.6063 14.3431 14.239C14.7103 13.8718 14.9167 13.3737 14.9167 12.8543C14.9167 12.2733 15.0889 11.7054 15.4117 11.2223C15.7345 10.7392 16.1933 10.3627 16.73 10.1404C17.2668 9.91807 17.8574 9.8599 18.4272 9.97324C18.9971 10.0866 19.5205 10.3664 19.9313 10.7772C20.3421 11.188 20.6219 11.7114 20.7352 12.2812C20.8486 12.851 20.7904 13.4417 20.5681 13.9784C20.3457 14.5152 19.9692 14.974 19.4862 15.2967C19.0031 15.6195 18.4352 15.7918 17.8542 15.7918C17.3348 15.7918 16.8367 15.9981 16.4694 16.3654C16.1022 16.7326 15.8958 17.2307 15.8958 17.7501V21.6668C15.8958 22.1862 16.1022 22.6843 16.4694 23.0515C16.8367 23.4188 17.3348 23.6251 17.8542 23.6251C18.3735 23.6251 18.8717 23.4188 19.2389 23.0515C19.6062 22.6843 19.8125 22.1862 19.8125 21.6668V19.3951C21.395 18.933 22.7572 17.9144 23.6479 16.527C24.5386 15.1397 24.8978 13.4772 24.6593 11.8459C24.4208 10.2146 23.6007 8.72448 22.3501 7.6502C21.0995 6.57593 19.5028 5.9899 17.8542 6.00013Z" fill="white"/>
<path d="M17.8538 29.4998C18.9354 29.4998 19.8122 28.623 19.8122 27.5415C19.8122 26.4599 18.9354 25.5831 17.8538 25.5831C16.7723 25.5831 15.8955 26.4599 15.8955 27.5415C15.8955 28.623 16.7723 29.4998 17.8538 29.4998Z" fill="white"/>
</svg>
