<svg width="28" height="26" viewBox="0 0 28 26" fill="none" xmlns="http://www.w3.org/2000/svg">
<g clip-path="url(#clip0_411_3420)">
<path d="M22.8533 11.8852C22.8533 11.8852 23.2225 13.5647 23.3056 13.9165H21.6825L22.4604 11.9527C22.4507 11.9665 22.6205 11.5416 22.7176 11.2799L22.8533 11.8852ZM28.0009 5.05537V20.9446C28.0006 21.5193 27.7547 22.0703 27.3171 22.4766C26.8795 22.883 26.2861 23.1113 25.6672 23.1116H2.33362C1.71478 23.1113 1.12135 22.883 0.683759 22.4766C0.24617 22.0703 0.000231907 21.5193 0 20.9446V5.05537C0.000231907 4.48072 0.24617 3.92968 0.683759 3.52335C1.12135 3.11701 1.71478 2.88864 2.33362 2.88843H25.6672C26.2861 2.88864 26.8795 3.11701 27.3171 3.52335C27.7547 3.92968 28.0006 4.48072 28.0009 5.05537ZM7.41388 16.3946L10.486 9.38924H8.42013L6.51 14.1741L6.30087 13.2039L5.62012 9.98074C5.50812 9.53387 5.16337 9.40712 4.7355 9.38924H1.59075L1.55663 9.52899C2.27682 9.69305 2.96764 9.95304 3.60763 10.3009L5.348 16.3946H7.41388ZM12.0033 16.4036L13.2283 9.38924H11.2744L10.0546 16.4036H12.0033ZM18.8037 14.1107C18.8134 13.312 18.2884 12.7026 17.1658 12.2013C16.4806 11.8804 16.0624 11.6642 16.0624 11.3344C16.072 11.0362 16.4176 10.7291 17.185 10.7291C17.6848 10.716 18.1814 10.807 18.6384 10.9956L18.8134 11.0719L19.0811 9.55499C18.5225 9.35642 17.9293 9.25533 17.3311 9.2568C15.4009 9.2568 14.0446 10.2139 14.035 11.5765C14.0201 12.5832 15.0071 13.143 15.7465 13.481C16.4999 13.8239 16.758 14.0497 16.758 14.352C16.7484 14.8216 16.1455 15.0377 15.5864 15.0377C14.8085 15.0377 14.3903 14.9248 13.7533 14.6632L13.496 14.5502L13.2239 16.1257C13.6806 16.3199 14.5267 16.4913 15.4017 16.5002C17.4527 16.5043 18.7897 15.561 18.8046 14.1082L18.8037 14.1107ZM25.6672 16.4036L24.0923 9.38924H22.5802C22.1139 9.38924 21.7586 9.51599 21.5591 9.9718L18.6567 16.4044H20.7078C20.7078 16.4044 21.0429 15.5374 21.1164 15.353H23.625C23.6836 15.6016 23.8586 16.4044 23.8586 16.4044L25.6672 16.4036Z" fill="#00A4E7"/>
</g>
<defs>
<clipPath id="clip0_411_3420">
<rect width="28" height="26" fill="white"/>
</clipPath>
</defs>
</svg>
