<svg width="32" height="32" viewBox="0 0 32 32" fill="none" xmlns="http://www.w3.org/2000/svg">
<g clip-path="url(#clip0_411_3390)">
<path d="M28.912 12.672C28.912 12.233 28.606 12 28.045 12H27.773V13.383H28.034C28.606 13.383 28.912 13.139 28.912 12.672ZM29.334 3.556H2.667C1.95975 3.55626 1.28154 3.83734 0.781439 4.33744C0.281337 4.83754 0.000265037 5.51575 0 6.223V25.779C0.000265037 26.4862 0.281337 27.1645 0.781439 27.6646C1.28154 28.1647 1.95975 28.4457 2.667 28.446H29.334C30.0413 28.4457 30.7195 28.1647 31.2196 27.6646C31.7197 27.1645 32.0007 26.4862 32.001 25.779V6.223C32.0007 5.51575 31.7197 4.83754 31.2196 4.33744C30.7195 3.83734 30.0413 3.55626 29.334 3.556ZM26.884 11.272C28.14 11.272 29.823 11.044 29.823 12.628C29.823 13.328 29.456 13.778 28.784 13.917L30.217 15.828H29.128L27.895 14.006H27.773V15.828H26.884V11.272ZM23.779 11.278H26.296V12.056H24.668V13.067H26.24V13.834H24.668V15.067H26.296V15.834H23.779V11.278ZM19.962 11.278L21.179 14.345L22.412 11.278H23.384L21.412 15.956H20.934L18.99 11.278H19.962ZM16.856 11.111C17.1815 11.1109 17.5037 11.1749 17.8044 11.2994C18.1052 11.4238 18.3784 11.6064 18.6085 11.8365C18.8386 12.0666 19.0212 12.3399 19.1456 12.6406C19.2701 12.9413 19.3341 13.2635 19.334 13.589C19.3341 13.9145 19.2701 14.2367 19.1456 14.5374C19.0212 14.8381 18.8386 15.1114 18.6085 15.3415C18.3784 15.5716 18.1052 15.7542 17.8044 15.8786C17.5037 16.0031 17.1815 16.0671 16.856 16.067C16.5305 16.0671 16.2083 16.0031 15.9076 15.8786C15.6069 15.7542 15.3336 15.5716 15.1035 15.3415C14.8734 15.1114 14.6908 14.8381 14.5664 14.5374C14.4419 14.2367 14.3779 13.9145 14.378 13.589C14.3779 13.2635 14.4419 12.9413 14.5664 12.6406C14.6908 12.3399 14.8734 12.0666 15.1035 11.8365C15.3336 11.6064 15.6069 11.4238 15.9076 11.2994C16.2083 11.1749 16.5305 11.1109 16.856 11.111ZM14.118 11.45V12.506C13.001 11.389 11.518 12.245 11.518 13.562C11.518 14.951 13.046 15.701 14.118 14.629V15.685C12.468 16.48 10.601 15.368 10.601 13.563C10.601 11.83 12.44 10.619 14.118 11.452V11.45ZM8.718 15.133C9.351 15.133 9.963 14.283 8.535 13.778C7.702 13.472 7.413 13.145 7.413 12.517C7.413 11.228 9.113 10.772 10.174 11.723L9.707 12.323C9.129 11.678 8.324 11.979 8.324 12.462C8.324 12.706 8.474 12.845 9.007 13.034C10.018 13.401 10.318 13.728 10.318 14.456C10.318 16.095 8.162 16.534 7.174 15.084L7.746 14.534C7.952 14.928 8.296 15.134 8.718 15.134V15.133ZM3.079 15.833H1.779V11.277H3.079C4.529 11.277 5.529 12.221 5.529 13.56C5.529 14.588 4.796 15.832 3.079 15.832V15.833ZM6.829 15.833H5.94V11.277H6.829V15.833ZM30.223 25.833C30.2214 26.0534 30.1332 26.2644 29.9773 26.4203C29.8214 26.5762 29.6104 26.6644 29.39 26.666H7.112C17.645 24.688 28.373 18.933 30.223 17.777V25.833ZM4.118 12.422C3.829 12.15 3.473 12.055 2.901 12.055H2.668V15.066H2.901C3.473 15.066 3.845 14.955 4.118 14.711C4.435 14.422 4.612 14 4.612 13.561C4.612 13.122 4.434 12.7 4.118 12.422Z" fill="#00ABEA"/>
</g>
<defs>
<clipPath id="clip0_411_3390">
<rect width="32" height="32" fill="white"/>
</clipPath>
</defs>
</svg>
