<svg width="30" height="30" viewBox="0 0 30 30" fill="none" xmlns="http://www.w3.org/2000/svg">
<path d="M12.1427 26.4286H17.857M14.9999 3.57145V2.14288M22.1427 6.4286L23.5713 5.00003M7.857 6.4286L6.42843 5.00003M22.1427 19.2857L23.5713 20.7143M7.857 19.2857L6.42843 20.7143M4.99986 12.1429H3.57129M26.4284 12.1429H24.9999M14.9999 7.14288C16.4503 7.14199 17.8584 7.63163 18.9954 8.53224C20.1324 9.43284 20.9314 10.6915 21.2626 12.1036C21.5937 13.5157 21.4376 14.9984 20.8196 16.3105C20.2016 17.6227 19.158 18.6874 17.8584 19.3315L17.857 20.7143C17.857 21.4721 17.556 22.1988 17.0202 22.7346C16.4843 23.2704 15.7576 23.5715 14.9999 23.5715C14.2421 23.5715 13.5154 23.2704 12.9796 22.7346C12.4437 22.1988 12.1427 21.4721 12.1427 20.7143V19.3315C10.8432 18.6874 9.7997 17.6229 9.18167 16.3109C8.56364 14.9988 8.40744 13.5163 8.73844 12.1043C9.06944 10.6922 9.86819 9.43362 11.0049 8.5329C12.1416 7.63219 13.5495 7.14232 14.9999 7.14288V7.14288Z" stroke="black" stroke-width="1.7" stroke-linecap="round" stroke-linejoin="round"/>
</svg>
