<svg width="50" height="50" viewBox="0 0 50 50" fill="none" xmlns="http://www.w3.org/2000/svg">
<path d="M39 38H11C9.3 38 8 36.7 8 35V17C8 15.3 9.3 14 11 14H17C17.2 14 17.5 13.8 17.6 13.7L18.7 11.5C19.1 10.7 20.1 10.1 21 10.1H29C29.9 10.1 30.9 10.7 31.3 11.5L32.4 13.7C32.5 13.9 32.8 14 33 14H39C40.7 14 42 15.3 42 17V35C42 36.7 40.7 38 39 38ZM11 16C10.4 16 10 16.4 10 17V35C10 35.6 10.4 36 11 36H39C39.6 36 40 35.6 40 35V17C40 16.4 39.6 16 39 16H33C32.1 16 31.1 15.4 30.7 14.6L29.6 12.4C29.5 12.2 29.2 12 29 12H21C20.8 12 20.5 12.2 20.4 12.3L19.3 14.5C18.9 15.4 17.9 16 17 16H11Z" fill="#2CA7FF"/>
<path d="M25 34C20 34 16 30 16 25C16 20 20 16 25 16C30 16 34 20 34 25C34 30 30 34 25 34ZM25 18C21.1 18 18 21.1 18 25C18 28.9 21.1 32 25 32C28.9 32 32 28.9 32 25C32 21.1 28.9 18 25 18Z" fill="#2CA7FF"/>
<path d="M35 19C35.5523 19 36 18.5523 36 18C36 17.4477 35.5523 17 35 17C34.4477 17 34 17.4477 34 18C34 18.5523 34.4477 19 35 19Z" fill="#2CA7FF"/>
<path d="M12 12H16V13H12V12ZM25 21V20C22.2 20 20 22.2 20 25H21C21 22.8 22.8 21 25 21Z" fill="#2CA7FF"/>
</svg>
