<svg width="32" height="30" viewBox="0 0 32 30" fill="none" xmlns="http://www.w3.org/2000/svg">
<path d="M18.4201 23.75C18.2211 23.7506 18.0245 23.7094 17.8447 23.6294C17.6649 23.5493 17.5065 23.4325 17.3811 23.2875L10.9475 15.7875C10.7516 15.5638 10.6445 15.2833 10.6445 14.9937C10.6445 14.7042 10.7516 14.4236 10.9475 14.2L17.6076 6.69998C17.8337 6.44471 18.1585 6.28418 18.5108 6.2537C18.863 6.22323 19.2137 6.32531 19.4857 6.53748C19.7577 6.74965 19.9288 7.05454 19.9612 7.38507C19.9937 7.71561 19.8849 8.04471 19.6588 8.29998L13.7048 15L19.459 21.7C19.6219 21.8835 19.7254 22.1069 19.7572 22.3438C19.789 22.5808 19.7478 22.8213 19.6385 23.0369C19.5292 23.2526 19.3564 23.4344 19.1405 23.5607C18.9245 23.6871 18.6745 23.7528 18.4201 23.75Z" fill="#0E9BFF"/>
</svg>
