<svg width="33" height="27" viewBox="0 0 33 27" fill="none" xmlns="http://www.w3.org/2000/svg">
<g clip-path="url(#clip0_411_3394)">
<path d="M20.6909 18.7531H12.3086V3.12476H20.6909V18.7531Z" fill="#6C6BBD"/>
<path d="M12.8409 10.9393C12.8409 7.76897 14.2716 4.94497 16.4998 3.12513C14.8704 1.79435 12.8139 1 10.5792 1C5.28866 1 1 5.44987 1 10.9393C1 16.4286 5.28866 20.8785 10.5792 20.8785C12.814 20.8785 14.8704 20.0842 16.4998 18.7534C14.2716 16.9335 12.8409 14.1095 12.8409 10.9393Z" fill="#D32011"/>
<path d="M32.0004 10.9393C32.0004 16.4286 27.7117 20.8785 22.4211 20.8785C20.1863 20.8785 18.1299 20.0842 16.5 18.7534C18.7287 16.9335 20.1595 14.1095 20.1595 10.9393C20.1595 7.76897 18.7287 4.94497 16.5 3.12513C18.1299 1.79435 20.1865 1 22.4211 1C27.7117 1 32.0004 5.44987 32.0004 10.9393Z" fill="#0099DF"/>
<path d="M23.5279 23.1691C23.6394 23.1691 23.7996 23.1912 23.922 23.2411L23.7515 23.7821C23.6345 23.7322 23.5175 23.7157 23.4055 23.7157C23.0437 23.7157 22.8628 23.9583 22.8628 24.3944V25.8743H22.3091V23.2354H22.8573V23.5558C23.0011 23.3239 23.2087 23.1691 23.5279 23.1691ZM21.4826 23.7599H20.578V24.9523C20.578 25.2171 20.6682 25.394 20.9454 25.394C21.0891 25.394 21.2699 25.3441 21.4345 25.2449L21.594 25.7359C21.4186 25.8628 21.142 25.9407 20.9026 25.9407C20.2479 25.9407 20.0195 25.576 20.0195 24.9631V23.7599H19.503V23.2354H20.0195V22.4348H20.578V23.2354H21.4826V23.7599ZM14.3993 24.323C14.4584 23.942 14.6814 23.6823 15.0755 23.6823C15.4317 23.6823 15.6607 23.9141 15.7192 24.323H14.3993ZM16.2943 24.5549C16.2887 23.732 15.799 23.1691 15.0858 23.1691C14.3409 23.1691 13.8195 23.7322 13.8195 24.5548C13.8195 25.3934 14.3622 25.94 15.1236 25.94C15.5067 25.94 15.8575 25.8407 16.1663 25.5704L15.8947 25.1451C15.6822 25.322 15.4104 25.4212 15.1553 25.4212C14.7989 25.4212 14.4742 25.25 14.3944 24.7755H16.2833C16.2887 24.7034 16.2942 24.6319 16.2942 24.5549H16.2943ZM18.7259 23.9091C18.5717 23.8092 18.2579 23.6822 17.9333 23.6822C17.63 23.6822 17.449 23.7985 17.449 23.9918C17.449 24.1681 17.6404 24.218 17.8798 24.2509L18.1405 24.2895C18.6941 24.3729 19.0291 24.6156 19.0291 25.0794C19.0291 25.5817 18.6033 25.9406 17.8694 25.9406C17.454 25.9406 17.0709 25.83 16.7674 25.5981L17.0282 25.1508C17.2146 25.2999 17.4918 25.4269 17.8748 25.4269C18.2525 25.4269 18.4547 25.3113 18.4547 25.1065C18.4547 24.9581 18.311 24.8746 18.0076 24.831L17.7469 24.7925C17.1774 24.7091 16.8686 24.4442 16.8686 24.014C16.8686 23.4895 17.284 23.1691 17.9278 23.1691C18.3323 23.1691 18.6996 23.2633 18.9651 23.4452L18.7257 23.9091H18.7259ZM25.5507 23.7143C25.4369 23.7143 25.3315 23.7353 25.2334 23.7764C25.1385 23.8163 25.0523 23.8756 24.98 23.9508C24.9073 24.0278 24.8501 24.1191 24.8119 24.2194C24.7711 24.3236 24.751 24.4386 24.751 24.5637C24.751 24.6895 24.7711 24.8038 24.8119 24.9081C24.8527 25.0123 24.9088 25.1022 24.98 25.1766C25.0523 25.2519 25.1385 25.3112 25.2334 25.351C25.3315 25.3927 25.4369 25.413 25.5507 25.413C25.6645 25.413 25.7706 25.3929 25.868 25.351C25.9633 25.3113 26.05 25.252 26.1226 25.1766C26.1952 25.1022 26.2512 25.0123 26.2926 24.9081C26.3334 24.8038 26.3535 24.6895 26.3535 24.5637C26.3535 24.4386 26.3334 24.3236 26.2926 24.2194C26.2512 24.1151 26.1952 24.0254 26.1226 23.9508C26.05 23.8754 25.9634 23.8161 25.8681 23.7764C25.7672 23.7346 25.6594 23.7135 25.5508 23.7145L25.5507 23.7143ZM25.5507 23.1691C25.7481 23.1691 25.9308 23.2045 26.0989 23.2759C26.2614 23.343 26.4096 23.4426 26.5351 23.5691C26.6585 23.6947 26.7565 23.8446 26.8231 24.0101C26.8925 24.1802 26.9273 24.3647 26.9273 24.5637C26.9273 24.7627 26.8925 24.9473 26.8231 25.1172C26.7565 25.2829 26.6585 25.4331 26.5349 25.5589C26.4126 25.6834 26.267 25.7808 26.099 25.8522C25.9307 25.923 25.7481 25.9583 25.5507 25.9583C25.3533 25.9583 25.1706 25.923 25.0025 25.8522C24.8344 25.7808 24.6901 25.6834 24.5683 25.5589C24.4455 25.4327 24.348 25.2826 24.2813 25.1172C24.2119 24.9473 24.1771 24.7627 24.1771 24.5637C24.1771 24.3647 24.2119 24.1802 24.2813 24.0102C24.348 23.845 24.4455 23.6951 24.5683 23.5691C24.6929 23.4425 24.8405 23.3428 25.0025 23.2759C25.1706 23.2045 25.3533 23.1691 25.5507 23.1691ZM11.1663 24.5548C11.1663 24.0911 11.4594 23.7101 11.9381 23.7101C12.3956 23.7101 12.7043 24.0746 12.7043 24.5549C12.7043 25.0351 12.3956 25.3991 11.9381 25.3991C11.4594 25.3991 11.1663 25.0187 11.1663 24.5549V24.5548ZM13.2258 24.5548V23.2354H12.6726V23.5558C12.4967 23.3182 12.2311 23.1691 11.8693 23.1691C11.156 23.1691 10.5974 23.7485 10.5974 24.5548C10.5974 25.3606 11.156 25.9406 11.8693 25.9406C12.2311 25.9406 12.4965 25.7915 12.6726 25.5539V25.8743H13.2258V24.5549V24.5548ZM10.1076 25.8744V24.2182C10.1076 23.5945 9.72447 23.1749 9.1075 23.1692C8.78284 23.1636 8.44717 23.2685 8.21334 23.6387C8.03788 23.3461 7.76081 23.1692 7.37222 23.1692C7.10109 23.1692 6.83493 23.252 6.62725 23.5609V23.2356H6.07422V25.8744H6.6327V24.4116C6.6327 23.9534 6.87756 23.7102 7.25513 23.7102C7.62252 23.7102 7.80889 23.9584 7.80889 24.4059V25.8744H8.36749V24.4114C8.36749 23.9533 8.62324 23.7101 8.98991 23.7101C9.36821 23.7101 9.54913 23.9583 9.54913 24.4058V25.8744H10.1076Z" fill="#110F0D"/>
</g>
<rect x="0.5" y="0.5" width="32" height="26" rx="3.5" stroke="#EDEDED"/>
<defs>
<clipPath id="clip0_411_3394">
<rect x="1" y="1" width="31" height="25" rx="3" fill="white"/>
</clipPath>
</defs>
</svg>
