<svg width="17" height="17" viewBox="0 0 17 17" fill="none" xmlns="http://www.w3.org/2000/svg">
<path d="M8.5 17C6.81886 17 5.17547 16.5015 3.77766 15.5675C2.37984 14.6335 1.29037 13.306 0.647028 11.7528C0.00368291 10.1996 -0.164645 8.49058 0.163329 6.84174C0.491303 5.1929 1.30085 3.67834 2.4896 2.4896C3.67834 1.30085 5.1929 0.491303 6.84174 0.163329C8.49058 -0.164645 10.1996 0.00368291 11.7528 0.647028C13.306 1.29037 14.6335 2.37984 15.5675 3.77766C16.5015 5.17547 17 6.81886 17 8.5C17 10.7543 16.1045 12.9164 14.5104 14.5104C12.9164 16.1045 10.7543 17 8.5 17ZM8.5 1.7C7.15509 1.7 5.84038 2.09882 4.72213 2.84601C3.60387 3.5932 2.7323 4.65522 2.21762 5.89776C1.70295 7.14029 1.56828 8.50755 1.83066 9.82662C2.09304 11.1457 2.74068 12.3573 3.69168 13.3083C4.64267 14.2593 5.85432 14.907 7.17339 15.1693C8.49246 15.4317 9.85971 15.2971 11.1023 14.7824C12.3448 14.2677 13.4068 13.3961 14.154 12.2779C14.9012 11.1596 15.3 9.84492 15.3 8.5C15.3 6.69653 14.5836 4.96692 13.3083 3.69168C12.0331 2.41643 10.3035 1.7 8.5 1.7Z" fill="#0071C2"/>
</svg>
