<svg width="35" height="35" viewBox="0 0 35 35" fill="none" xmlns="http://www.w3.org/2000/svg">
<path d="M17.5 32.8125C13.4389 32.8125 9.54408 31.1992 6.67243 28.3276C3.80078 25.4559 2.1875 21.5611 2.1875 17.5C2.1875 13.4389 3.80078 9.54408 6.67243 6.67243C9.54408 3.80078 13.4389 2.1875 17.5 2.1875C21.5611 2.1875 25.4559 3.80078 28.3276 6.67243C31.1992 9.54408 32.8125 13.4389 32.8125 17.5C32.8125 21.5611 31.1992 25.4559 28.3276 28.3276C25.4559 31.1992 21.5611 32.8125 17.5 32.8125ZM17.5 35C22.1413 35 26.5925 33.1563 29.8744 29.8744C33.1563 26.5925 35 22.1413 35 17.5C35 12.8587 33.1563 8.40752 29.8744 5.12563C26.5925 1.84374 22.1413 0 17.5 0C12.8587 0 8.40752 1.84374 5.12563 5.12563C1.84374 8.40752 0 12.8587 0 17.5C0 22.1413 1.84374 26.5925 5.12563 29.8744C8.40752 33.1563 12.8587 35 17.5 35Z" fill="white"/>
<path d="M11.4956 12.6569C11.4926 12.7275 11.5041 12.798 11.5293 12.8641C11.5546 12.9301 11.5931 12.9903 11.6425 13.0409C11.6919 13.0915 11.7511 13.1315 11.8165 13.1583C11.8819 13.1852 11.9521 13.1984 12.0228 13.1972H13.8275C14.1293 13.1972 14.37 12.95 14.4093 12.6503C14.6062 11.2153 15.5906 10.1697 17.345 10.1697C18.8456 10.1697 20.2193 10.92 20.2193 12.7247C20.2193 14.1137 19.4012 14.7525 18.1084 15.7237C16.6362 16.7934 15.4703 18.0425 15.5534 20.0703L15.56 20.545C15.5623 20.6885 15.6209 20.8254 15.7232 20.9261C15.8255 21.0267 15.9633 21.0831 16.1068 21.0831H17.8809C18.0259 21.0831 18.165 21.0255 18.2676 20.9229C18.3702 20.8204 18.4278 20.6813 18.4278 20.5362V20.3066C18.4278 18.7359 19.025 18.2787 20.6371 17.0559C21.9693 16.0431 23.3584 14.9187 23.3584 12.5584C23.3584 9.25313 20.5671 7.65625 17.5112 7.65625C14.7396 7.65625 11.7034 8.94687 11.4956 12.6569ZM14.9015 25.2634C14.9015 26.4294 15.8312 27.2912 17.1109 27.2912C18.4431 27.2912 19.3596 26.4294 19.3596 25.2634C19.3596 24.0559 18.4409 23.2072 17.1087 23.2072C15.8312 23.2072 14.9015 24.0559 14.9015 25.2634Z" fill="white"/>
</svg>
