<svg width="27" height="31" viewBox="0 0 27 31" fill="none" xmlns="http://www.w3.org/2000/svg">
<path d="M20.8125 11.625H24.1875V27.125H20.8125V11.625ZM16.3125 16.7917H19.6875V27.125H16.3125V16.7917ZM11.8125 14.2083H15.1875V27.125H11.8125V14.2083ZM7.3125 20.6667H10.6875V27.125H7.3125V20.6667ZM2.8125 18.0833H6.1875V27.125H2.8125V18.0833Z" fill="#008009"/>
<path d="M4.5 12.2708C5.43198 12.2708 6.1875 11.4034 6.1875 10.3333C6.1875 9.26326 5.43198 8.39581 4.5 8.39581C3.56802 8.39581 2.8125 9.26326 2.8125 10.3333C2.8125 11.4034 3.56802 12.2708 4.5 12.2708Z" fill="#008009"/>
<path d="M9 13.5625C9.93198 13.5625 10.6875 12.6951 10.6875 11.625C10.6875 10.5549 9.93198 9.6875 9 9.6875C8.06802 9.6875 7.3125 10.5549 7.3125 11.625C7.3125 12.6951 8.06802 13.5625 9 13.5625Z" fill="#008009"/>
<path d="M13.5 9.04169C14.432 9.04169 15.1875 8.17424 15.1875 7.10419C15.1875 6.03414 14.432 5.16669 13.5 5.16669C12.568 5.16669 11.8125 6.03414 11.8125 7.10419C11.8125 8.17424 12.568 9.04169 13.5 9.04169Z" fill="#008009"/>
<path d="M18 10.3333C18.932 10.3333 19.6875 9.46586 19.6875 8.39581C19.6875 7.32576 18.932 6.45831 18 6.45831C17.068 6.45831 16.3125 7.32576 16.3125 8.39581C16.3125 9.46586 17.068 10.3333 18 10.3333Z" fill="#008009"/>
<path d="M22.5 7.75C23.432 7.75 24.1875 6.88255 24.1875 5.8125C24.1875 4.74245 23.432 3.875 22.5 3.875C21.568 3.875 20.8125 4.74245 20.8125 5.8125C20.8125 6.88255 21.568 7.75 22.5 7.75Z" fill="#008009"/>
<path d="M21.9937 4.65002L17.8875 7.03961L13.2188 5.68336L8.71875 10.2042L4.78125 9.10627L4.21875 11.5604L9.28125 13.0459L13.7812 8.52502L18.1125 9.75211L23.0063 6.97502L21.9937 4.65002Z" fill="#008009"/>
</svg>
