<svg width="17" height="17" viewBox="0 0 17 17" fill="none" xmlns="http://www.w3.org/2000/svg">
<path d="M8.49926 4.25002C7.65869 4.25002 6.837 4.49927 6.13809 4.96627C5.43918 5.43326 4.89445 6.09702 4.57278 6.87361C4.25111 7.65019 4.16694 8.50472 4.33093 9.32914C4.49492 10.1536 4.89969 10.9108 5.49406 11.5052C6.08844 12.0996 6.84571 12.5044 7.67013 12.6683C8.49455 12.8323 9.34908 12.7482 10.1257 12.4265C10.9022 12.1048 11.566 11.5601 12.033 10.8612C12.5 10.1623 12.7493 9.34058 12.7493 8.50001C12.7493 7.37284 12.3015 6.29184 11.5045 5.49481C10.7074 4.69778 9.62643 4.25002 8.49926 4.25002Z" fill="#0071C2"/>
<path d="M8.49999 0C6.81885 0 5.17547 0.498515 3.77765 1.43251C2.37983 2.3665 1.29037 3.69401 0.647027 5.24718C0.00368291 6.80035 -0.164645 8.50941 0.163329 10.1583C0.491302 11.8071 1.30085 13.3216 2.48959 14.5104C3.67834 15.6991 5.19289 16.5087 6.84172 16.8366C8.49056 17.1646 10.1996 16.9963 11.7528 16.3529C13.306 15.7096 14.6335 14.6201 15.5675 13.2223C16.5015 11.8245 17 10.1811 17 8.49999C17 7.38375 16.7801 6.27845 16.353 5.24718C15.9258 4.21592 15.2997 3.27888 14.5104 2.48959C13.7211 1.70029 12.7841 1.07419 11.7528 0.647023C10.7215 0.219859 9.61622 0 8.49999 0ZM8.49999 15.3C7.15508 15.3 5.84037 14.9012 4.72212 14.154C3.60387 13.4068 2.73229 12.3448 2.21762 11.1022C1.70294 9.85969 1.56828 8.49244 1.83066 7.17337C2.09304 5.8543 2.74068 4.64266 3.69167 3.69167C4.64267 2.74067 5.85431 2.09304 7.17338 1.83066C8.49245 1.56828 9.8597 1.70294 11.1022 2.21762C12.3448 2.73229 13.4068 3.60386 14.154 4.72211C14.9012 5.84037 15.3 7.15507 15.3 8.49999C15.3 10.3035 14.5836 12.0331 13.3083 13.3083C12.0331 14.5835 10.3035 15.3 8.49999 15.3Z" fill="#0071C2"/>
</svg>
