<svg width="40" height="40" viewBox="0 0 40 40" fill="none" xmlns="http://www.w3.org/2000/svg">
<path d="M20.8337 11.6667C20.8337 9.81671 22.317 8.33337 24.167 8.33337H30.0003C31.8337 8.33337 33.3337 9.83337 33.3337 11.6667V15.2667C31.4003 15.95 30.0003 17.7834 30.0003 19.95V23.3334H20.8337V11.6667ZM10.0003 19.9334V23.3334H19.167V11.6667C19.167 9.81671 17.6837 8.33337 15.8337 8.33337H10.0003C8.16699 8.33337 6.66699 9.83337 6.66699 11.6667V15.25C8.60032 15.9334 10.0003 17.7834 10.0003 19.9334ZM34.4337 16.7167C32.8003 16.9834 31.667 18.5334 31.667 20.2V25H8.33366V20C8.33366 19.116 7.98247 18.2681 7.35735 17.643C6.73223 17.0179 5.88438 16.6667 5.00033 16.6667C4.11627 16.6667 3.26842 17.0179 2.6433 17.643C2.01818 18.2681 1.66699 19.116 1.66699 20V28.3334C1.66699 30.1667 3.16699 31.6667 5.00033 31.6667V35H8.33366V31.6667H31.667V35H35.0003V31.6667C36.8337 31.6667 38.3337 30.1667 38.3337 28.3334V20C38.3337 17.9834 36.517 16.3667 34.4337 16.7167Z" fill="#808080"/>
</svg>
