<svg width="9" height="9" viewBox="0 0 9 9" fill="none" xmlns="http://www.w3.org/2000/svg">
<path d="M4.49971 0C3.60975 0 2.73978 0.263903 1.99981 0.758338C1.25983 1.25277 0.683095 1.95553 0.342522 2.77775C0.00194965 3.59996 -0.0871596 4.5047 0.0864627 5.37756C0.260085 6.25042 0.688641 7.05219 1.31794 7.68149C1.94723 8.31078 2.749 8.73934 3.62186 8.91296C4.49472 9.08658 5.39946 8.99748 6.22168 8.6569C7.04389 8.31633 7.74665 7.73959 8.24109 6.99962C8.73552 6.25964 8.99942 5.38967 8.99942 4.49971C8.99942 3.30631 8.52535 2.16179 7.68149 1.31793C6.83763 0.474075 5.69311 0 4.49971 0Z" fill="#0071C2"/>
</svg>
